<svg xmlns="http://www.w3.org/2000/svg" xmlns:xlink="http://www.w3.org/1999/xlink" width="375" height="413" viewBox="0 0 375 413">
  <defs>
    <clipPath id="clip-path">
      <rect id="Rect치ngulo_1764" data-name="Rect치ngulo 1764" width="375" height="413" transform="translate(0 254)" fill="#fff" stroke="#707070" stroke-width="1"/>
    </clipPath>
  </defs>
  <g id="Enmascarar_grupo_1604" data-name="Enmascarar grupo 1604" transform="translate(0 -254)" clip-path="url(#clip-path)">
    <g id="Grupo_1790" data-name="Grupo 1790" transform="translate(-3438 -6847.998)" opacity="0.497">
      <g id="Grupo_1789" data-name="Grupo 1789" transform="translate(3404.576 7153.564)">
        <g id="Grupo_1788" data-name="Grupo 1788" transform="translate(0 0)">
          <path id="Trazado_1343" data-name="Trazado 1343" d="M563.7,990.962a54.981,54.981,0,0,0-35,51.549v73.13l33.766-67.951a54.2,54.2,0,0,1-7.235-27.189,55.747,55.747,0,0,1,8.469-29.538" transform="translate(-388.731 -824.833)" fill="#aac46e"/>
          <path id="Trazado_1344" data-name="Trazado 1344" d="M650.066,1075.882h-56.14v-52.159H565.3a56.438,56.438,0,0,1-8.373-.613v169.25l27.867-68.687a18.2,18.2,0,0,1,16.852-11.343H650.2c-.075-1.278-.13-2.547-.13-3.846Z" transform="translate(-343.599 -773.44)" fill="#aac46e"/>
          <path id="Trazado_1345" data-name="Trazado 1345" d="M621.7,1090.637a17.754,17.754,0,0,0,3.5.34,18.169,18.169,0,0,0,16.818-11.333l4.568-9.178a54.979,54.979,0,0,0-39.579-26.807V1072.8a18.15,18.15,0,0,0,14.693,17.837" transform="translate(-263.542 -740.591)" fill="#aac46e"/>
          <path id="Trazado_1346" data-name="Trazado 1346" d="M553.161,1013.5a18.163,18.163,0,0,0,18.162,18.177h28.507A54.857,54.857,0,0,0,582.3,995.339H571.323a18.157,18.157,0,0,0-18.162,18.164" transform="translate(-349.627 -817.836)" fill="#aac46e"/>
          <path id="Trazado_1347" data-name="Trazado 1347" d="M642.077,1071.432H588.221l-15.233,37.542h80.037a55.122,55.122,0,0,0,46.712-26.191,54.469,54.469,0,0,1-19.612,3.617,55.9,55.9,0,0,1-38.049-14.968" transform="translate(-317.932 -696.193)" fill="#aac46e"/>
          <path id="Trazado_1348" data-name="Trazado 1348" d="M670,1257.637a17.812,17.812,0,0,1-3.5-.335,18.156,18.156,0,0,1-14.687-17.831V1041.056l-27.878,68.715a18.2,18.2,0,0,1-16.847,11.335H530.047a18.179,18.179,0,1,1,0-36.357h64.807l15.243-37.555H530.052c-30.487,0-55.215,25.256-55.215,55.73s24.728,54.612,55.215,54.612h84.756V1242.3c0,30.461,25.253,55.169,55.717,55.169,30.492,0,54.638-24.708,54.638-55.169v-73.13L686.832,1246.3A18.186,18.186,0,0,1,670,1257.637" transform="translate(-474.837 -744.752)" fill="#5f83bd"/>
          <path id="Trazado_1349" data-name="Trazado 1349" d="M787.89,1066.98H703.139V982.2c0-30.464-25.261-55.169-55.743-55.169s-54.625,24.705-54.625,55.169v73.138l38.322-77.15a18.191,18.191,0,0,1,35.037,6.845v198.414l27.876-68.692a18.2,18.2,0,0,1,16.847-11.343H787.89a18.179,18.179,0,0,1,0,36.357H723.078l-15.225,37.542H787.89c30.474,0,55.166-25.243,55.166-55.722,0-30.461-24.692-54.61-55.166-54.61" transform="translate(-286.306 -927.032)" fill="#63a354"/>
          <path id="Trazado_1350" data-name="Trazado 1350" d="M630.233,1122.972a55.735,55.735,0,0,1-8.469,29.528,54.969,54.969,0,0,0,35.029-51.549v-73.13l-33.787,67.964a54.288,54.288,0,0,1,7.227,27.187" transform="translate(-239.958 -765.909)" fill="#63a354"/>
          <path id="Trazado_1351" data-name="Trazado 1351" d="M639.495,1075.616a18.153,18.153,0,0,0-18.175-18.172h-28.5a54.787,54.787,0,0,0,17.551,36.349H621.32a18.164,18.164,0,0,0,18.175-18.177" transform="translate(-286.226 -718.554)" fill="#63a354"/>
          <path id="Trazado_1352" data-name="Trazado 1352" d="M571.245,1095h56.138v52.159h28.629a55.138,55.138,0,0,1,8.373.626V978.523l-27.865,68.7a18.231,18.231,0,0,1-16.854,11.335H571.12c.091,1.266.125,2.536.125,3.83Z" transform="translate(-320.918 -844.718)" fill="#63a354"/>
          <path id="Trazado_1353" data-name="Trazado 1353" d="M599.874,1018.44H653.7l15.238-37.552H588.9a55.174,55.174,0,0,0-46.733,26.179,54.568,54.568,0,0,1,19.627-3.628,55.857,55.857,0,0,1,38.078,15" transform="translate(-367.199 -840.937)" fill="#63a354"/>
          <path id="Trazado_1354" data-name="Trazado 1354" d="M566.585,1005.229a18.167,18.167,0,0,0-20.321,11l-4.568,9.194a55.048,55.048,0,0,0,39.6,26.812v-29.174a18.184,18.184,0,0,0-14.708-17.832" transform="translate(-367.957 -802.566)" fill="#63a354"/>
          <path id="Trazado_1355" data-name="Trazado 1355" d="M669.353,1070.853l-4.568,9.176a18.17,18.17,0,0,1-16.818,11.335,17.763,17.763,0,0,1-3.5-.34,18.151,18.151,0,0,1-14.693-17.84v-29.138a54.774,54.774,0,0,0-8.375-.629H592.772v32.6c0,1.3.052,2.57.13,3.848h28.5a18.175,18.175,0,1,1,0,36.35H610.45a55.907,55.907,0,0,0,38.052,14.968,54.444,54.444,0,0,0,19.609-3.617,55.735,55.735,0,0,0,8.469-29.528,54.258,54.258,0,0,0-7.227-27.187" transform="translate(-286.305 -740.978)" fill="#fff"/>
          <path id="Trazado_1356" data-name="Trazado 1356" d="M622.736,1077.346v-32.6c0-1.294-.034-2.565-.125-3.83H594.1a18.172,18.172,0,0,1,0-36.344h10.979a55.856,55.856,0,0,0-38.078-15,54.566,54.566,0,0,0-19.627,3.628,55.747,55.747,0,0,0-8.469,29.538,54.2,54.2,0,0,0,7.235,27.189l4.571-9.191a18.183,18.183,0,0,1,35.027,6.832v29.175a56.761,56.761,0,0,0,8.37.611Z" transform="translate(-372.409 -827.066)" fill="#fff"/>
          <rect id="Rect치ngulo_1757" data-name="Rect치ngulo 1757" width="311.833" height="409.281" transform="translate(122.844 24.448)" fill="none"/>
        </g>
      </g>
    </g>
  </g>
</svg>
