<svg xmlns="http://www.w3.org/2000/svg" xmlns:xlink="http://www.w3.org/1999/xlink" width="682.904" height="681.467" viewBox="0 0 682.904 681.467"><defs><style>.a{fill:#f4f4f4;}.b{fill:none;}.c{clip-path:url(#a);}.d{fill:#004b8d;}.e{clip-path:url(#b);}.f{fill:#001733;opacity:0.1;}.g{fill:#e3e5f1;}.h{fill:#dcdfed;}.i{fill:#00b259;}.j{fill:#fff;}</style><clipPath id="a"><rect class="b" width="682.904" height="681.467"/></clipPath><clipPath id="b"><path class="a" d="M406.9,129.644c55.588,55.24,108.764,108.393,111.845,164.615,3.215,56.1-43.532,115.145-99.12,159.459-55.588,44.438-120.016,74.144-176.407,66.779s-104.612-51.8-141.313-96.24C65.342,379.819,40.428,335.627,20.6,273.145.646,210.54-14.222,129.889,22.345,74.649c36.7-55.24,124.7-85.07,197.838-71.321S351.316,74.4,406.9,129.644Z" transform="matrix(-0.391, 0.921, -0.921, -0.391, 533.295, 10.352)"/></clipPath></defs><g class="c"><path class="d" d="M406.9,129.644c55.588,55.24,108.764,108.393,111.845,164.615,3.215,56.1-43.532,115.145-99.12,159.459-55.588,44.438-120.016,74.144-176.407,66.779s-104.612-51.8-141.313-96.24C65.342,379.819,40.428,335.627,20.6,273.145.646,210.54-14.222,129.889,22.345,74.649c36.7-55.24,124.7-85.07,197.838-71.321S351.316,74.4,406.9,129.644Z" transform="matrix(-0.391, 0.921, -0.921, -0.391, 682.904, 203.812)"/><g class="e" transform="translate(149.609 193.461)"><g transform="matrix(0.899, 0.438, -0.438, 0.899, 228.138, 57.438)"><path class="a" d="M102.509,54.639l-1.94-9.83-.585-2.967-.334-6.319-.026-.493L97.884,2.011A2,2,0,0,0,96.767.435,3.726,3.726,0,0,0,94.392.05L75.635,3.1l-.2.033-48.1,7.831-.883.144L0,15.42.606,45.107l.019.992.183,8.986L1.011,65l20.824,9.855,1.314.621c19.315-1.445,45-4.223,62.4-6.205l.963-.843L102.4,54.714Z" transform="translate(2.767 16.671)"/><path class="f" d="M99.025,56l-8.331-4.086L48.174,31.061,8.99,63.446,1.068,70,0,69.309,8.842,53.364,8.329,18.918l22.382-5,2.925-5.276a2.343,2.343,0,0,1,1.5-1.143L65.611.066a2.349,2.349,0,0,1,2.667,1.263L70.1,5.119,85.63,1.652a2.351,2.351,0,0,1,2.86,2.2l1.447,37.628,9.88,13.205.028.333Z" transform="translate(3.52 14.279)"/><path class="g" d="M3.518,83.389,0,23.209a2.349,2.349,0,0,1,1.835-2.43L95.168.054a2.349,2.349,0,0,1,2.844,2.1l5.469,66.806-51.787-25.4Z" transform="translate(0 0.2)"/><path class="f" d="M.194,21.5,48.68,51.415a3.559,3.559,0,0,0,4.533-.71L96.609.093c.158-.181.234-.051,0,0L.194,21.5C-.082,21.563-.047,21.358.194,21.5Z" transform="translate(0.452 0.53)"/><path class="h" d="M.252,22.081,48.237,51.068a3.763,3.763,0,0,0,4.786-.753l43-49.457a.518.518,0,0,0-.5-.846L.407,21.133a.516.516,0,0,0-.156.948Z" transform="translate(0.742 0)"/></g><g transform="translate(45.333 130.064) rotate(-7)"><path class="h" d="M117.075,2.7,241.694,83.554,160.369,230.231A5.676,5.676,0,0,1,156.747,233L83.06,250.97a5.68,5.68,0,0,1-6.452-3.055L40.058,171.98,0,118.431,95.059,5.969A16.846,16.846,0,0,1,117.075,2.7Z" transform="translate(1.267 0)"/><path class="f" d="M0,118.438l.353.477,23.465,31.37.424.567L40.058,172l31.261,64.957.877,1.816,4.413,9.164a5.681,5.681,0,0,0,6.462,3.055L156.757,233a5.666,5.666,0,0,0,3.622-2.764l7.086-12.757,1.272-2.3L219.883,122.9l.438-.786L241.7,83.561l-2.583-1.677-19.581-12.7-.453-.3L177.848,42.135l-2.6-1.687L117.085,2.712A16.841,16.841,0,0,0,95.059,5.971L51.695,57.294l-1.906,2.287L18.313,96.818l-.172.2L2.316,115.741.324,118.1Z" transform="translate(0 0.627)"/><path class="f" d="M0,56.574,3.841,83.26,5,91.314l.662,17.155.052,1.339,3.445,89.636a5.685,5.685,0,0,0,6.915,5.323l37.141-8.292.4-.09,95.255-21.258,1.749-.391,52.367-11.694-1.2-80.592-.038-2.692-.362-24.394-.4-26.924L159.749,1.687,157.147,0C118.9,3.922,68.035,11.465,33.577,16.845l-1.906,2.287L.219,56.369Z" transform="translate(19.362 40.441)"/><path class="i" d="M0,25.647,4.522,57.1,8.668,85.9l1.158,8.034.662,17.155,3.5,90.975a5.685,5.685,0,0,0,6.915,5.323l37.542-8.382L153.7,177.748l54.115-12.085-1.239-83.284-.362-24.394-.424-28.535L205.354.1C196.4-.324,181.679.634,164.1,2.4,124.738,6.352,71.08,14.343,36,19.847,14.515,23.217,0,25.647,0,25.647Z" transform="translate(15.011 39.727)"/><path class="f" d="M1.982,33.858l20.143,9.879,102.8,50.417,94.74-78.3L238.821,0,241.4,1.677,220.026,40.229l1.239,83.284L167.15,135.6l-7.072,12.757a5.666,5.666,0,0,1-3.622,2.764L82.77,169.094a5.68,5.68,0,0,1-6.448-3.055l-4.413-9.164-37.542,8.382a5.685,5.685,0,0,1-6.915-5.323l-3.5-90.976L.067,37.032,0,36.226Z" transform="translate(1.554 81.876)"/><path class="h" d="M241.69,0l8.5,145.5a5.68,5.68,0,0,1-4.436,5.876L20.1,201.484a5.68,5.68,0,0,1-6.876-5.084L0,34.878,125.21,96.289Z" transform="translate(1.272 83.554)"/><path class="f" d="M233.471,73.572,116.243,1.248a8.606,8.606,0,0,0-10.96,1.716L.359,125.333c-.381.439-.567.124,0,0L233.471,73.572C234.138,73.424,234.052,73.92,233.471,73.572Z" transform="translate(16.434 158.814)"/><path class="g" d="M231.869,71.395,115.851,1.311a9.1,9.1,0,0,0-11.57,1.82L.305,122.708a1.253,1.253,0,0,0,1.215,2.044L231.492,73.687a1.249,1.249,0,0,0,.376-2.292Z" transform="translate(17.198 160.871)"/><g transform="translate(83.036 68.798) rotate(-4)"><rect class="j" width="88.861" height="10.303" transform="translate(20.945 62.834) rotate(-45)"/><rect class="j" width="39.923" height="10.303" transform="translate(7.285 34.604) rotate(45)"/></g></g></g></g></svg>