<svg xmlns="http://www.w3.org/2000/svg" xmlns:xlink="http://www.w3.org/1999/xlink" width="148" height="32" viewBox="0 0 148 32"><defs><style>.a{fill:#fff;stroke:#707070;}.b{fill:none;}.c{clip-path:url(#a);}.d{clip-path:url(#b);}.e{fill:#223f50;}.f{fill:#e24a2e;}</style><clipPath id="a"><rect class="b" width="148" height="32"/></clipPath><clipPath id="b"><rect class="a" width="148" height="32" transform="translate(114 505)"/></clipPath></defs><g class="c"><g class="d" transform="translate(-114 -505)"><g transform="translate(30.49 476.495)"><path class="e" d="M2069.165,102.979a1.623,1.623,0,0,1,.748.193,1.356,1.356,0,0,1,.569.549,1.422,1.422,0,0,1,.208.739,1.46,1.46,0,0,1-.2.737,1.437,1.437,0,0,1-.561.551,1.614,1.614,0,0,1-.76.2,1.57,1.57,0,0,1-.764-.194,1.407,1.407,0,0,1-.565-.548,1.43,1.43,0,0,1-.206-.738,1.467,1.467,0,0,1,.2-.741,1.393,1.393,0,0,1,.571-.55,1.62,1.62,0,0,1,.756-.195m0,.249a1.318,1.318,0,0,0-.63.162,1.221,1.221,0,0,0-.476.457,1.249,1.249,0,0,0-.168.619,1.224,1.224,0,0,0,.166.613,1.185,1.185,0,0,0,.476.457,1.326,1.326,0,0,0,.636.164,1.28,1.28,0,0,0,.626-.167,1.144,1.144,0,0,0,.472-.457,1.215,1.215,0,0,0-.005-1.234,1.149,1.149,0,0,0-.474-.455,1.353,1.353,0,0,0-.623-.159m-.671,2.057-.006-1.594.567,0a1.433,1.433,0,0,1,.422.044.408.408,0,0,1,.208.154.432.432,0,0,1,.077.239.425.425,0,0,1-.129.3.543.543,0,0,1-.343.147.434.434,0,0,1,.138.083,1.87,1.87,0,0,1,.245.314l.2.306-.328,0-.146-.251a1.59,1.59,0,0,0-.276-.368.367.367,0,0,0-.21-.054h-.158v.674Zm.262-.893.32,0a.561.561,0,0,0,.32-.066.207.207,0,0,0,.083-.177.21.21,0,0,0-.039-.127.259.259,0,0,0-.114-.085.953.953,0,0,0-.268-.025h-.307Z" transform="translate(-1839.887 -65.161)"/><path class="e" d="M87.547,51.951,87.51,32.909l3.358-.007-.009,5.033,12.077-.026a5.359,5.359,0,0,1,5.608,5.506l.029,2.929a5.4,5.4,0,0,1-5.592,5.576ZM102.96,41.286l-12.077.025.012,7.238,12.079-.024a2.013,2.013,0,0,0,2.245-2.14l-.006-2.973a2,2,0,0,0-2.253-2.127" transform="translate(0 -0.047)"/><path class="e" d="M1087.959,46.378l-.025-13.521,3.47-.006s-.02,1.776-.015,4.987l14.367.019,0,3.362-14.363.027c0,.712.009,5.232.009,5.258a1.984,1.984,0,0,0,2.227,2l12.145,0v3.4L1093.69,51.9a6.09,6.09,0,0,1-2.007-.339,5.223,5.223,0,0,1-3.724-5.18" transform="translate(-929.572)"/><path class="e" d="M1390.707,111.592a2.021,2.021,0,0,0,2.265,2.077l11.262-.025,0,3.36-11.262.027a5.388,5.388,0,0,1-5.622-5.44l-.006-3.131a5.375,5.375,0,0,1,5.6-5.459l10.063-.023c2.246,0,5.614,1.413,5.62,5.306l.008,3.048-17.936.038Zm12.375-5.279-10.1.024a2.048,2.048,0,0,0-2.285,2.106v.14l14.586-.031,0-.137a1.974,1.974,0,0,0-2.2-2.1" transform="translate(-1207.78 -65.161)"/><path class="e" d="M450.224,113.7h.175m0,0,.018-7.32-12.18.024a2.013,2.013,0,0,0-2.245,2.14l.006,2.973a2.058,2.058,0,0,0,2.253,2.208l11.873-.024.006,3.358-11.875,0a5.393,5.393,0,0,1-5.611-5.542l-.009-2.974a5.376,5.376,0,0,1,5.6-5.54l15.546-.031.028,14.075Z" transform="translate(-320.681 -65.161)"/><path class="f" d="M777.5,112.141l-6.517-9.162,4.211.01,6.528,9.155c0,.02-4.222,0-4.222,0" transform="translate(-635.072 -65.161)"/><path class="e" d="M833.963,102.989l4.211-.01L824.63,122.022l-4.245,0Z" transform="translate(-680.971 -65.162)"/><path class="e" d="M1756.615,102.979l.037,19.042-3.365-3.371,0-1.611-12.19.026a5.483,5.483,0,0,1-5.728-5.542l-.009-2.974a5.466,5.466,0,0,1,5.713-5.54ZM1741.089,113.7l12.19-.025-.011-7.347-12.192-.017a2.013,2.013,0,0,0-2.245,2.14l.006,3.123a2,2,0,0,0,2.253,2.127" transform="translate(-1531.141 -65.161)"/></g></g></g></svg>