<svg xmlns="http://www.w3.org/2000/svg" xmlns:xlink="http://www.w3.org/1999/xlink" width="213.724" height="63.643" viewBox="0 0 213.724 63.643"><defs><style>.a{fill:#fff;}.b{fill:none;}.c{clip-path:url(#a);}.d{clip-path:url(#b);}.e{fill:#004b8d;}.f{fill:#00b259;}</style><clipPath id="a"><rect class="b" width="213.724" height="63.642"/></clipPath><clipPath id="b"><rect class="a" width="213.724" height="63.642"/></clipPath></defs><g class="c"><g class="d"><g transform="translate(0 1.9)"><path class="e" d="M493.165,174.332H499.8c5.7,0,10.912,1.649,10.912,7.911,0,6.112-4.462,8.324-10.087,8.324h-2.211V200.5h-5.247Zm5.247,12.11h1.838c2.625,0,4.985-.862,4.985-3.9s-2.286-4.087-4.985-4.087h-1.838Z" transform="translate(-428.1 -162.878)"/><path class="e" d="M534.529,188.282h4.462v4.386h.075c.227-1.8,2.288-4.836,5.288-4.836a5.479,5.479,0,0,1,1.535.15v5.061a5.127,5.127,0,0,0-2.249-.412c-4.086,0-4.086,5.1-4.086,7.873v7.088h-5.024Z" transform="translate(-449.818 -169.966)"/><path class="e" d="M561.732,189.295a17.29,17.29,0,0,1,6.713-1.463c5.887,0,8.323,2.436,8.323,8.136v2.475c0,1.949.038,3.412.077,4.837.036,1.463.112,2.813.223,4.313h-4.424a24.018,24.018,0,0,1-.226-2.887h-.075a6.9,6.9,0,0,1-5.961,3.336c-3.413,0-6.75-2.063-6.75-5.736a5.674,5.674,0,0,1,3.3-5.512,15.3,15.3,0,0,1,6.488-1.125h2.774c0-3.111-1.386-4.162-4.35-4.162a10.108,10.108,0,0,0-5.961,2.1Zm5.889,15.073a4.269,4.269,0,0,0,3.525-1.725,6.4,6.4,0,0,0,1.049-3.974h-2.175c-2.25,0-5.586.375-5.586,3.336,0,1.651,1.387,2.364,3.188,2.364" transform="translate(-462.999 -169.966)"/><path class="e" d="M599.3,188.78h5.924l3.786,6.3,3.713-6.3h5.324l-5.775,9.186L618.8,208.09h-6l-4.312-7.2-4.349,7.2h-5.514l6.637-10.124Z" transform="translate(-483.474 -170.464)"/><path class="f" d="M645.443,174.332h8.4l6.223,19.835h.076l6.225-19.835h8.4V200.5h-5.025v-21.6h-.075l-7.049,21.6h-5.025l-7.049-21.6-.073.076V200.5h-5.027Z" transform="translate(-508.055 -162.878)"/><path class="f" d="M717.21,174.332h15.446v4.124h-10.2v6.449H731.8v4.125h-9.337v7.348h10.273V200.5H717.21Z" transform="translate(-545.736 -162.878)"/><path class="f" d="M758.338,174.333H765.5c8.025,0,15.11,2.7,15.11,13.085S773.526,200.5,765.5,200.5h-7.163Zm5.251,22.046h2.925a8.968,8.968,0,0,0,0-17.922h-2.925Z" transform="translate(-567.331 -162.878)"/><path class="e" d="M605.225,245.271a3.279,3.279,0,0,0-.277-.715,1.98,1.98,0,0,0-.452-.565,2.013,2.013,0,0,0-.646-.37,2.557,2.557,0,0,0-.859-.132,2.517,2.517,0,0,0-1.239.289,2.414,2.414,0,0,0-.844.771,3.446,3.446,0,0,0-.484,1.1,5.086,5.086,0,0,0,0,2.51,3.449,3.449,0,0,0,.484,1.1,2.4,2.4,0,0,0,.844.77,2.517,2.517,0,0,0,1.239.289,2.223,2.223,0,0,0,.929-.181,2.065,2.065,0,0,0,.691-.5,2.369,2.369,0,0,0,.451-.747,3.606,3.606,0,0,0,.214-.916h1.53a4.283,4.283,0,0,1-.344,1.469,3.6,3.6,0,0,1-.8,1.148,3.5,3.5,0,0,1-1.18.747,4.078,4.078,0,0,1-1.493.264,4.231,4.231,0,0,1-1.8-.37,3.979,3.979,0,0,1-1.351-1.011,4.528,4.528,0,0,1-.845-1.493,5.7,5.7,0,0,1,0-3.627,4.546,4.546,0,0,1,.845-1.495,4.061,4.061,0,0,1,1.351-1.016,4.162,4.162,0,0,1,1.8-.376,4.728,4.728,0,0,1,1.417.207,3.671,3.671,0,0,1,1.174.6,3.154,3.154,0,0,1,.822.96,3.359,3.359,0,0,1,.389,1.292Z" transform="translate(-483.51 -198.518)"/><path class="e" d="M619.132,251.285a2.461,2.461,0,0,0,.107.727,1.787,1.787,0,0,0,.319.616,1.574,1.574,0,0,0,.541.421,1.789,1.789,0,0,0,.777.155,1.722,1.722,0,0,0,1.01-.269,1.594,1.594,0,0,0,.573-.811h1.354a2.694,2.694,0,0,1-1.054,1.639,2.863,2.863,0,0,1-.872.427,3.538,3.538,0,0,1-1.01.144,3.441,3.441,0,0,1-1.355-.252,2.792,2.792,0,0,1-1-.7,2.971,2.971,0,0,1-.616-1.08,4.376,4.376,0,0,1-.206-1.38,3.911,3.911,0,0,1,.218-1.312,3.358,3.358,0,0,1,.629-1.091,2.974,2.974,0,0,1,.984-.747,3.005,3.005,0,0,1,1.306-.276,2.911,2.911,0,0,1,1.374.32,2.975,2.975,0,0,1,1.01.849,3.429,3.429,0,0,1,.584,1.21,3.722,3.722,0,0,1,.094,1.412Zm3.34-.941a2.291,2.291,0,0,0-.146-.654,1.778,1.778,0,0,0-.325-.545,1.616,1.616,0,0,0-.5-.378,1.492,1.492,0,0,0-.66-.144,1.712,1.712,0,0,0-.684.132,1.543,1.543,0,0,0-.528.365,1.782,1.782,0,0,0-.351.545,1.916,1.916,0,0,0-.144.678Z" transform="translate(-493.489 -201.292)"/><path class="e" d="M633.056,247.67h1.355v.954l.023.025a2.4,2.4,0,0,1,.856-.847,2.263,2.263,0,0,1,1.167-.308,2.423,2.423,0,0,1,1.68.552,2.115,2.115,0,0,1,.616,1.657v4.455h-1.431V250.08a1.761,1.761,0,0,0-.326-1.111,1.183,1.183,0,0,0-.939-.345,1.553,1.553,0,0,0-.654.132,1.394,1.394,0,0,0-.488.365,1.7,1.7,0,0,0-.315.545,1.93,1.93,0,0,0-.114.665v3.827h-1.429Z" transform="translate(-501.551 -201.292)"/><path class="e" d="M646.848,245.714h1.079v-1.945h1.432v1.945h1.291v1.067h-1.291v3.464a3.425,3.425,0,0,0,.018.389.694.694,0,0,0,.087.276.412.412,0,0,0,.207.17,1.047,1.047,0,0,0,.378.055c.1,0,.2,0,.3-.006a1.512,1.512,0,0,0,.3-.043v1.1l-.464.05a4.092,4.092,0,0,1-.464.025,3.186,3.186,0,0,1-.909-.1,1.2,1.2,0,0,1-.539-.315,1.081,1.081,0,0,1-.264-.519,3.912,3.912,0,0,1-.082-.716v-3.829h-1.079Z" transform="translate(-508.792 -199.336)"/><path class="e" d="M657.021,247.67h1.343v1.255h.025a1.429,1.429,0,0,1,.245-.515,2.364,2.364,0,0,1,.439-.457,2.155,2.155,0,0,1,.572-.333,1.681,1.681,0,0,1,.64-.126,3.3,3.3,0,0,1,.345.013l.195.026v1.381c-.1-.017-.2-.03-.308-.045a2.708,2.708,0,0,0-.306-.018,1.64,1.64,0,0,0-.685.144,1.6,1.6,0,0,0-.558.426,2.133,2.133,0,0,0-.377.7,3,3,0,0,0-.138.954v3.087h-1.43Z" transform="translate(-514.134 -201.292)"/><path class="e" d="M668.49,254.336a3.546,3.546,0,0,1-1.388-.258,2.972,2.972,0,0,1-1.029-.709,3.01,3.01,0,0,1-.639-1.08,4.124,4.124,0,0,1-.221-1.38,4.074,4.074,0,0,1,.221-1.368,2.915,2.915,0,0,1,1.668-1.79,3.871,3.871,0,0,1,2.774,0,2.994,2.994,0,0,1,1.03.71,3.033,3.033,0,0,1,.64,1.08,4.123,4.123,0,0,1,.22,1.368,4.174,4.174,0,0,1-.22,1.38,3.046,3.046,0,0,1-.64,1.08,2.967,2.967,0,0,1-1.03.709,3.544,3.544,0,0,1-1.386.258m0-1.131a1.634,1.634,0,0,0,.828-.2,1.733,1.733,0,0,0,.577-.527,2.357,2.357,0,0,0,.334-.734,3.307,3.307,0,0,0,0-1.664,2.278,2.278,0,0,0-.334-.734,1.778,1.778,0,0,0-.577-.521,1.809,1.809,0,0,0-1.657,0,1.761,1.761,0,0,0-.576.521,2.225,2.225,0,0,0-.334.734,3.275,3.275,0,0,0,0,1.664,2.3,2.3,0,0,0,.334.734,1.717,1.717,0,0,0,.576.527,1.639,1.639,0,0,0,.829.2" transform="translate(-518.435 -201.292)"/><path class="e" d="M682.206,252.074a1.078,1.078,0,0,0,.48.879,1.865,1.865,0,0,0,.991.251,3.882,3.882,0,0,0,.456-.03,1.975,1.975,0,0,0,.485-.119.921.921,0,0,0,.37-.258.609.609,0,0,0,.13-.445.627.627,0,0,0-.2-.452,1.383,1.383,0,0,0-.483-.282,4.527,4.527,0,0,0-.672-.182c-.251-.05-.506-.1-.766-.163a7.175,7.175,0,0,1-.772-.214,2.44,2.44,0,0,1-.663-.339,1.545,1.545,0,0,1-.473-.546,1.751,1.751,0,0,1-.176-.823,1.479,1.479,0,0,1,.257-.885,2,2,0,0,1,.654-.577,2.9,2.9,0,0,1,.878-.309,5.3,5.3,0,0,1,.923-.087,4.192,4.192,0,0,1,.959.108,2.629,2.629,0,0,1,.829.343,2.077,2.077,0,0,1,.615.623,2.171,2.171,0,0,1,.308.922h-1.494a.9.9,0,0,0-.47-.69,1.959,1.959,0,0,0-.849-.176,3.076,3.076,0,0,0-.358.025,1.706,1.706,0,0,0-.388.094.834.834,0,0,0-.308.2.483.483,0,0,0-.125.345.545.545,0,0,0,.182.428,1.454,1.454,0,0,0,.478.269,4.674,4.674,0,0,0,.674.182c.251.05.513.105.78.164a7.9,7.9,0,0,1,.768.212,2.5,2.5,0,0,1,.673.338,1.663,1.663,0,0,1,.479.54,1.627,1.627,0,0,1,.183.8,1.753,1.753,0,0,1-.264.978,2.092,2.092,0,0,1-.687.653,3.1,3.1,0,0,1-.937.363,4.673,4.673,0,0,1-1.018.115,4.435,4.435,0,0,1-1.141-.14,2.614,2.614,0,0,1-.9-.42,2,2,0,0,1-.6-.7,2.271,2.271,0,0,1-.234-1Z" transform="translate(-526.605 -201.292)"/><path class="e" d="M702.95,242.657h2.209l2.472,7.017h.026l2.409-7.017h2.183v8.962h-1.492V244.7h-.026l-2.486,6.915h-1.291l-2.486-6.915h-.025v6.915H702.95Z" transform="translate(-538.249 -198.752)"/><path class="e" d="M726.845,248.5a2.444,2.444,0,0,0,.106.727,1.774,1.774,0,0,0,.321.616,1.546,1.546,0,0,0,.539.421,1.8,1.8,0,0,0,.778.155,1.727,1.727,0,0,0,1.011-.269,1.6,1.6,0,0,0,.571-.81h1.355a2.736,2.736,0,0,1-.389.94,2.688,2.688,0,0,1-.665.7,2.893,2.893,0,0,1-.872.427,3.545,3.545,0,0,1-1.011.144,3.437,3.437,0,0,1-1.355-.252,2.807,2.807,0,0,1-1-.7,2.95,2.95,0,0,1-.614-1.08,4.332,4.332,0,0,1-.208-1.38,3.853,3.853,0,0,1,.221-1.312,3.278,3.278,0,0,1,.627-1.091,2.94,2.94,0,0,1,2.29-1.024,2.909,2.909,0,0,1,1.373.32,2.966,2.966,0,0,1,1.009.849,3.424,3.424,0,0,1,.588,1.21,3.749,3.749,0,0,1,.092,1.412Zm3.338-.941a2.356,2.356,0,0,0-.144-.654,1.753,1.753,0,0,0-.328-.545,1.6,1.6,0,0,0-.5-.378,1.487,1.487,0,0,0-.659-.144,1.717,1.717,0,0,0-.685.132,1.567,1.567,0,0,0-.528.365,1.772,1.772,0,0,0-.351.545,1.847,1.847,0,0,0-.144.678Zm-1.079-5.373H730.8l-1.783,1.8h-1.04Z" transform="translate(-550.043 -198.503)"/><path class="e" d="M746.531,251.619h-1.356v-.877h-.025a1.7,1.7,0,0,1-.84.809,2.862,2.862,0,0,1-1.167.246,3.118,3.118,0,0,1-1.336-.271,2.67,2.67,0,0,1-.949-.735,3.121,3.121,0,0,1-.564-1.1,4.8,4.8,0,0,1-.189-1.362,4.314,4.314,0,0,1,.239-1.519,3.026,3.026,0,0,1,.634-1.053,2.464,2.464,0,0,1,.9-.61,2.9,2.9,0,0,1,1.036-.194,3.545,3.545,0,0,1,.615.056,2.8,2.8,0,0,1,.6.183,2.375,2.375,0,0,1,.532.32,1.789,1.789,0,0,1,.409.458h.024v-3.314h1.431Zm-5-3.175a3.12,3.12,0,0,0,.108.816,2.223,2.223,0,0,0,.325.715,1.655,1.655,0,0,0,.56.5,1.634,1.634,0,0,0,.8.188,1.607,1.607,0,0,0,.823-.2,1.662,1.662,0,0,0,.561-.527,2.288,2.288,0,0,0,.328-.734,3.277,3.277,0,0,0,.106-.835,2.621,2.621,0,0,0-.482-1.683,1.594,1.594,0,0,0-1.312-.6,1.629,1.629,0,0,0-.848.208,1.724,1.724,0,0,0-.563.54,2.2,2.2,0,0,0-.314.752,3.9,3.9,0,0,0-.1.86" transform="translate(-557.757 -198.752)"/><path class="e" d="M756.992,242.657h1.431v1.356h-1.431Zm0,2.473h1.431v6.488h-1.431Z" transform="translate(-566.624 -198.752)"/><path class="e" d="M767.315,249.841a1.346,1.346,0,0,0-.484-.91,1.572,1.572,0,0,0-1-.307,2.05,2.05,0,0,0-.589.094,1.4,1.4,0,0,0-.579.352,1.98,1.98,0,0,0-.439.715,3.383,3.383,0,0,0-.177,1.2,3.619,3.619,0,0,0,.094.805,2.278,2.278,0,0,0,.3.714,1.63,1.63,0,0,0,.533.508,1.518,1.518,0,0,0,.791.194,1.439,1.439,0,0,0,1.035-.389,1.8,1.8,0,0,0,.509-1.092h1.43a3.135,3.135,0,0,1-.96,1.939,2.925,2.925,0,0,1-2.014.673,3.321,3.321,0,0,1-1.35-.258,2.846,2.846,0,0,1-.985-.7,2.986,2.986,0,0,1-.608-1.061,4.163,4.163,0,0,1-.208-1.331,4.568,4.568,0,0,1,.2-1.367,3.157,3.157,0,0,1,.6-1.112,2.85,2.85,0,0,1,1-.739,3.36,3.36,0,0,1,1.4-.27,3.868,3.868,0,0,1,1.072.145,2.84,2.84,0,0,1,.906.433,2.291,2.291,0,0,1,.646.728,2.478,2.478,0,0,1,.3,1.042Z" transform="translate(-569.579 -201.292)"/><path class="e" d="M780.616,254.336a3.535,3.535,0,0,1-1.386-.258,2.969,2.969,0,0,1-1.031-.709,3.031,3.031,0,0,1-.639-1.08,4.114,4.114,0,0,1-.221-1.38,4.065,4.065,0,0,1,.221-1.368,2.912,2.912,0,0,1,1.669-1.79,3.87,3.87,0,0,1,2.773,0,2.98,2.98,0,0,1,1.03.71,3.064,3.064,0,0,1,.64,1.08,4.15,4.15,0,0,1,.22,1.368,4.2,4.2,0,0,1-.22,1.38,3.077,3.077,0,0,1-.64,1.08,2.954,2.954,0,0,1-1.03.709,3.543,3.543,0,0,1-1.387.258m0-1.131a1.632,1.632,0,0,0,.828-.2,1.767,1.767,0,0,0,.58-.527,2.383,2.383,0,0,0,.332-.734,3.339,3.339,0,0,0,0-1.664,2.3,2.3,0,0,0-.332-.734,1.814,1.814,0,0,0-.58-.521,1.806,1.806,0,0,0-1.656,0,1.752,1.752,0,0,0-.577.521,2.22,2.22,0,0,0-.335.734,3.32,3.32,0,0,0,0,1.664,2.3,2.3,0,0,0,.335.734,1.708,1.708,0,0,0,.577.527,1.633,1.633,0,0,0,.828.2" transform="translate(-577.307 -201.292)"/><path class="e" d="M794.336,252.074a1.078,1.078,0,0,0,.477.879,1.876,1.876,0,0,0,.992.251,3.886,3.886,0,0,0,.458-.03,1.939,1.939,0,0,0,.482-.119.911.911,0,0,0,.372-.258.613.613,0,0,0,.132-.445.632.632,0,0,0-.2-.452,1.4,1.4,0,0,0-.484-.282,4.419,4.419,0,0,0-.671-.182c-.249-.05-.505-.1-.766-.163a7.215,7.215,0,0,1-.771-.214,2.463,2.463,0,0,1-.664-.339,1.555,1.555,0,0,1-.473-.546,1.75,1.75,0,0,1-.175-.823,1.489,1.489,0,0,1,.257-.885,1.992,1.992,0,0,1,.653-.577,2.919,2.919,0,0,1,.879-.309,5.3,5.3,0,0,1,.922-.087,4.224,4.224,0,0,1,.961.108,2.648,2.648,0,0,1,.828.343,2.057,2.057,0,0,1,.615.623,2.119,2.119,0,0,1,.306.922h-1.492a.9.9,0,0,0-.472-.69,1.947,1.947,0,0,0-.847-.176,3.06,3.06,0,0,0-.358.025,1.693,1.693,0,0,0-.388.094.806.806,0,0,0-.307.2.476.476,0,0,0-.126.345.553.553,0,0,0,.182.428,1.459,1.459,0,0,0,.479.269,4.759,4.759,0,0,0,.673.182q.377.075.783.164a7.866,7.866,0,0,1,.766.212,2.547,2.547,0,0,1,.674.338,1.689,1.689,0,0,1,.478.54,1.643,1.643,0,0,1,.182.8,1.737,1.737,0,0,1-.265.978,2.084,2.084,0,0,1-.684.653,3.139,3.139,0,0,1-.939.363,4.679,4.679,0,0,1-1.018.115,4.426,4.426,0,0,1-1.139-.14,2.625,2.625,0,0,1-.906-.42,2.005,2.005,0,0,1-.6-.7,2.232,2.232,0,0,1-.234-1Z" transform="translate(-585.48 -201.292)"/><path class="f" d="M431.376,171.827H417.848V158.3a8.086,8.086,0,1,0-16.172,0v11.17l5.595-12a2.769,2.769,0,0,1,5.26,1.205l0,30.008,4.61-9.871a2.777,2.777,0,0,1,2.55-1.669h11.306a2.765,2.765,0,0,1,0,5.529h-9.562L418.95,188h12.426a8.087,8.087,0,0,0,0-16.174" transform="translate(-380.063 -150.215)"/><path class="e" d="M385.873,227.031a2.765,2.765,0,0,1-2.765-2.764l0-30.021-4.609,9.883a2.783,2.783,0,0,1-2.552,1.669H364.639a2.765,2.765,0,0,1,0-5.531H374.2l2.481-5.321H364.255a8.087,8.087,0,0,0,0,16.174h13.527v13.527a8.086,8.086,0,1,0,16.172,0V213.475l-5.6,12a2.76,2.76,0,0,1-2.484,1.559" transform="translate(-356.169 -173.334)"/></g></g></g></svg>