<svg xmlns="http://www.w3.org/2000/svg" xmlns:xlink="http://www.w3.org/1999/xlink" width="282" height="84" viewBox="0 0 282 84">
  <defs>
    <clipPath id="clip-path">
      <rect width="282" height="84" fill="none"/>
    </clipPath>
    <clipPath id="clip-path-2">
      <rect id="Rect치ngulo_1731" data-name="Rect치ngulo 1731" width="282" height="84" transform="translate(47 292)" fill="#fff" stroke="#707070" stroke-width="1"/>
    </clipPath>
    <clipPath id="clip-path-3">
      <rect width="280.166" height="83.427" fill="none"/>
    </clipPath>
    <clipPath id="clip-path-4">
      <rect id="Rect치ngulo_1729" data-name="Rect치ngulo 1729" width="280.166" height="83.427" fill="#fff"/>
    </clipPath>
  </defs>
  <g id="Componente_3" data-name="Componente 3" clip-path="url(#clip-path)">
    <g id="Enmascarar_grupo_1602" data-name="Enmascarar grupo 1602" transform="translate(-47 -292)" clip-path="url(#clip-path-2)">
      <g id="logo" transform="translate(47.417 292.129)" clip-path="url(#clip-path-3)">
        <g id="Enmascarar_grupo_1600" data-name="Enmascarar grupo 1600" clip-path="url(#clip-path-4)">
          <g id="Grupo_1762" data-name="Grupo 1762" transform="translate(0 2.49)">
            <path id="Trazado_1306" data-name="Trazado 1306" d="M493.165,174.332h8.7c7.472,0,14.3,2.161,14.3,10.37,0,8.012-5.849,10.912-13.223,10.912h-2.9V208.64h-6.878Zm6.878,15.875h2.409c3.442,0,6.535-1.13,6.535-5.111s-3-5.357-6.535-5.357h-2.409Z" transform="translate(-407.872 -159.317)" fill="#fff"/>
            <path id="Trazado_1307" data-name="Trazado 1307" d="M534.529,188.422h5.849v5.75h.1c.3-2.36,3-6.34,6.931-6.34a7.182,7.182,0,0,1,2.013.2v6.635a6.721,6.721,0,0,0-2.948-.54c-5.357,0-5.357,6.684-5.357,10.321v9.291h-6.586Z" transform="translate(-423.484 -164.412)" fill="#fff"/>
            <path id="Trazado_1308" data-name="Trazado 1308" d="M562.384,189.75a22.664,22.664,0,0,1,8.8-1.918c7.716,0,10.911,3.194,10.911,10.665v3.244c0,2.555.049,4.473.1,6.341.047,1.918.146,3.687.292,5.653h-5.8a31.516,31.516,0,0,1-.3-3.785h-.1a9.041,9.041,0,0,1-7.813,4.373c-4.474,0-8.849-2.7-8.849-7.52a7.438,7.438,0,0,1,4.325-7.225c2.508-1.229,5.751-1.475,8.5-1.475H576.1c0-4.079-1.817-5.456-5.7-5.456a13.249,13.249,0,0,0-7.813,2.753Zm7.719,19.759a5.6,5.6,0,0,0,4.62-2.262,8.4,8.4,0,0,0,1.375-5.21h-2.852c-2.949,0-7.323.492-7.323,4.373,0,2.165,1.819,3.1,4.179,3.1" transform="translate(-432.958 -164.412)" fill="#fff"/>
            <path id="Trazado_1309" data-name="Trazado 1309" d="M599.515,188.78h7.766l4.963,8.257,4.867-8.257h6.979l-7.57,12.042,8.552,13.271h-7.864l-5.652-9.438-5.7,9.438h-7.228l8.7-13.271Z" transform="translate(-447.676 -164.77)" fill="#fff"/>
            <path id="Trazado_1310" data-name="Trazado 1310" d="M645.443,174.332h11.012l8.158,26h.1l8.16-26h11.01V208.64H677.3V180.328h-.1l-9.24,28.312h-6.587l-9.24-28.312-.1.1V208.64h-6.59Z" transform="translate(-465.344 -159.317)" fill="#fff"/>
            <path id="Trazado_1311" data-name="Trazado 1311" d="M717.21,174.332h20.249v5.407H724.09v8.454h12.24V193.6H724.09v9.633h13.467v5.408H717.21Z" transform="translate(-492.429 -159.317)" fill="#fff"/>
            <path id="Trazado_1312" data-name="Trazado 1312" d="M758.338,174.333h9.39c10.519,0,19.808,3.538,19.808,17.153s-9.288,17.155-19.808,17.155h-9.39Zm6.883,28.9h3.834c5.752,0,11.3-4.277,11.3-11.747s-5.552-11.747-11.3-11.747h-3.834Z" transform="translate(-507.951 -159.317)" fill="#fff"/>
            <path id="Trazado_1313" data-name="Trazado 1313" d="M607.255,246.223a4.3,4.3,0,0,0-.364-.937,2.6,2.6,0,0,0-.593-.74,2.638,2.638,0,0,0-.847-.486,3.352,3.352,0,0,0-1.126-.172,3.3,3.3,0,0,0-1.624.379,3.166,3.166,0,0,0-1.107,1.011,4.518,4.518,0,0,0-.634,1.44,6.666,6.666,0,0,0,0,3.29,4.521,4.521,0,0,0,.634,1.441,3.151,3.151,0,0,0,1.107,1.01,3.3,3.3,0,0,0,1.624.379,2.915,2.915,0,0,0,1.217-.238,2.708,2.708,0,0,0,.906-.657,3.107,3.107,0,0,0,.591-.979,4.73,4.73,0,0,0,.281-1.2h2.006a5.616,5.616,0,0,1-.451,1.925,4.724,4.724,0,0,1-1.045,1.505,4.588,4.588,0,0,1-1.547.979,5.346,5.346,0,0,1-1.957.346,5.546,5.546,0,0,1-2.363-.485,5.216,5.216,0,0,1-1.771-1.326,5.936,5.936,0,0,1-1.108-1.957,7.476,7.476,0,0,1,0-4.754,5.96,5.96,0,0,1,1.108-1.959,5.324,5.324,0,0,1,1.771-1.332,5.457,5.457,0,0,1,2.363-.493,6.2,6.2,0,0,1,1.858.271,4.811,4.811,0,0,1,1.54.789,4.134,4.134,0,0,1,1.078,1.258,4.4,4.4,0,0,1,.51,1.694Z" transform="translate(-447.701 -184.935)" fill="#fff"/>
            <path id="Trazado_1314" data-name="Trazado 1314" d="M619.576,252.463a3.225,3.225,0,0,0,.141.953,2.343,2.343,0,0,0,.418.808,2.063,2.063,0,0,0,.71.552,2.346,2.346,0,0,0,1.018.2,2.258,2.258,0,0,0,1.324-.352,2.09,2.09,0,0,0,.751-1.063h1.775a3.532,3.532,0,0,1-1.382,2.149,3.752,3.752,0,0,1-1.144.56,4.639,4.639,0,0,1-1.324.189,4.511,4.511,0,0,1-1.777-.331,3.66,3.66,0,0,1-1.307-.921,3.893,3.893,0,0,1-.807-1.416,5.736,5.736,0,0,1-.27-1.809,5.127,5.127,0,0,1,.286-1.72,4.4,4.4,0,0,1,.825-1.431,3.9,3.9,0,0,1,1.289-.979,3.94,3.94,0,0,1,1.712-.362,3.815,3.815,0,0,1,1.8.42,3.9,3.9,0,0,1,1.324,1.113,4.5,4.5,0,0,1,.766,1.586,4.877,4.877,0,0,1,.123,1.851Zm4.379-1.233a3,3,0,0,0-.192-.857,2.333,2.333,0,0,0-.427-.714,2.119,2.119,0,0,0-.657-.495,1.956,1.956,0,0,0-.865-.189,2.244,2.244,0,0,0-.9.173,2.024,2.024,0,0,0-.692.479,2.337,2.337,0,0,0-.461.715,2.511,2.511,0,0,0-.189.888Z" transform="translate(-454.874 -186.929)" fill="#fff"/>
            <path id="Trazado_1315" data-name="Trazado 1315" d="M633.056,247.725h1.776v1.25l.031.033a3.152,3.152,0,0,1,1.122-1.111,2.966,2.966,0,0,1,1.53-.4,3.177,3.177,0,0,1,2.2.724,2.772,2.772,0,0,1,.807,2.172v5.84h-1.876v-5.346a2.308,2.308,0,0,0-.428-1.456,1.551,1.551,0,0,0-1.232-.453,2.037,2.037,0,0,0-.858.173,1.828,1.828,0,0,0-.64.479,2.228,2.228,0,0,0-.413.715,2.53,2.53,0,0,0-.149.872v5.016h-1.873Z" transform="translate(-460.669 -186.929)" fill="#fff"/>
            <path id="Trazado_1316" data-name="Trazado 1316" d="M646.848,246.319h1.414v-2.55h1.877v2.55h1.693v1.4H650.14v4.541a4.494,4.494,0,0,0,.023.511.911.911,0,0,0,.115.362.54.54,0,0,0,.271.222,1.372,1.372,0,0,0,.495.072c.132,0,.265,0,.395-.007a1.984,1.984,0,0,0,.394-.057v1.447c-.208.024-.413.044-.609.066a5.367,5.367,0,0,1-.608.032,4.177,4.177,0,0,1-1.192-.138,1.571,1.571,0,0,1-.707-.413,1.418,1.418,0,0,1-.346-.681,5.137,5.137,0,0,1-.107-.939v-5.019h-1.414Z" transform="translate(-465.874 -185.523)" fill="#fff"/>
            <path id="Trazado_1317" data-name="Trazado 1317" d="M657.021,247.725h1.76v1.645h.033a1.873,1.873,0,0,1,.321-.675,3.1,3.1,0,0,1,.576-.6,2.825,2.825,0,0,1,.75-.436,2.2,2.2,0,0,1,.839-.166,4.326,4.326,0,0,1,.452.017c.082.011.166.023.255.034v1.81c-.131-.022-.267-.04-.4-.059a3.548,3.548,0,0,0-.4-.024,2.149,2.149,0,0,0-.9.189,2.1,2.1,0,0,0-.732.558,2.8,2.8,0,0,0-.494.914,3.939,3.939,0,0,0-.181,1.251v4.046h-1.875Z" transform="translate(-469.713 -186.929)" fill="#fff"/>
            <path id="Trazado_1318" data-name="Trazado 1318" d="M669.508,256.462a4.65,4.65,0,0,1-1.819-.338,3.9,3.9,0,0,1-1.349-.93,3.947,3.947,0,0,1-.837-1.416,5.4,5.4,0,0,1-.29-1.809,5.339,5.339,0,0,1,.29-1.794,3.821,3.821,0,0,1,2.187-2.346,5.075,5.075,0,0,1,3.636,0,3.925,3.925,0,0,1,1.35.93,3.98,3.98,0,0,1,.839,1.416,5.408,5.408,0,0,1,.289,1.794,5.474,5.474,0,0,1-.289,1.809,4,4,0,0,1-.839,1.416,3.89,3.89,0,0,1-1.35.93,4.646,4.646,0,0,1-1.817.338m0-1.483a2.143,2.143,0,0,0,1.085-.263,2.27,2.27,0,0,0,.756-.69,3.087,3.087,0,0,0,.438-.962,4.335,4.335,0,0,0,0-2.181,2.984,2.984,0,0,0-.438-.962,2.329,2.329,0,0,0-.756-.683,2.371,2.371,0,0,0-2.172,0,2.308,2.308,0,0,0-.755.683,2.919,2.919,0,0,0-.438.962,4.295,4.295,0,0,0,0,2.181,3.017,3.017,0,0,0,.438.962,2.25,2.25,0,0,0,.755.69,2.148,2.148,0,0,0,1.087.263" transform="translate(-472.805 -186.929)" fill="#fff"/>
            <path id="Trazado_1319" data-name="Trazado 1319" d="M682.651,253.5a1.413,1.413,0,0,0,.629,1.152,2.444,2.444,0,0,0,1.3.329,5.084,5.084,0,0,0,.6-.04,2.587,2.587,0,0,0,.636-.156,1.206,1.206,0,0,0,.485-.338.8.8,0,0,0,.171-.583.822.822,0,0,0-.261-.593,1.815,1.815,0,0,0-.634-.37,5.938,5.938,0,0,0-.88-.239c-.329-.065-.663-.138-1-.214a9.4,9.4,0,0,1-1.012-.28,3.2,3.2,0,0,1-.87-.444,2.023,2.023,0,0,1-.62-.715,2.294,2.294,0,0,1-.231-1.078,1.938,1.938,0,0,1,.338-1.161,2.616,2.616,0,0,1,.857-.756,3.8,3.8,0,0,1,1.151-.4,6.95,6.95,0,0,1,1.21-.115,5.5,5.5,0,0,1,1.257.141,3.447,3.447,0,0,1,1.087.45,2.723,2.723,0,0,1,.806.816,2.846,2.846,0,0,1,.4,1.209h-1.958a1.176,1.176,0,0,0-.616-.9,2.567,2.567,0,0,0-1.113-.231,4.04,4.04,0,0,0-.469.033,2.235,2.235,0,0,0-.509.123,1.093,1.093,0,0,0-.4.264.634.634,0,0,0-.164.452.715.715,0,0,0,.239.561,1.907,1.907,0,0,0,.626.352,6.123,6.123,0,0,0,.884.239c.329.066.672.138,1.023.215a10.348,10.348,0,0,1,1.007.278,3.272,3.272,0,0,1,.882.443,2.178,2.178,0,0,1,.627.709,2.132,2.132,0,0,1,.24,1.053,2.3,2.3,0,0,1-.345,1.283,2.742,2.742,0,0,1-.9.856,4.059,4.059,0,0,1-1.228.476,6.125,6.125,0,0,1-1.334.151,5.813,5.813,0,0,1-1.5-.183,3.425,3.425,0,0,1-1.185-.551,2.624,2.624,0,0,1-.793-.921,2.976,2.976,0,0,1-.307-1.308Z" transform="translate(-478.678 -186.929)" fill="#fff"/>
            <path id="Trazado_1320" data-name="Trazado 1320" d="M702.95,242.657h2.9l3.241,9.2h.034l3.158-9.2h2.862V254.4h-1.956V245.34h-.035l-3.259,9.064H708.2l-3.259-9.064h-.032V254.4H702.95Z" transform="translate(-487.047 -185.103)" fill="#fff"/>
            <path id="Trazado_1321" data-name="Trazado 1321" d="M727.289,250.458a3.205,3.205,0,0,0,.139.953,2.326,2.326,0,0,0,.421.808,2.027,2.027,0,0,0,.706.552,2.355,2.355,0,0,0,1.02.2,2.264,2.264,0,0,0,1.326-.352,2.1,2.1,0,0,0,.749-1.062h1.776a3.587,3.587,0,0,1-.511,1.233,3.524,3.524,0,0,1-.872.915,3.79,3.79,0,0,1-1.143.56,4.648,4.648,0,0,1-1.326.189,4.505,4.505,0,0,1-1.776-.331,3.681,3.681,0,0,1-1.309-.921,3.87,3.87,0,0,1-.8-1.416,5.681,5.681,0,0,1-.273-1.809,5.051,5.051,0,0,1,.29-1.72,4.3,4.3,0,0,1,.822-1.431,3.854,3.854,0,0,1,3-1.342,3.813,3.813,0,0,1,1.8.42,3.89,3.89,0,0,1,1.323,1.113,4.491,4.491,0,0,1,.77,1.586,4.915,4.915,0,0,1,.121,1.851Zm4.376-1.233a3.091,3.091,0,0,0-.189-.857,2.3,2.3,0,0,0-.43-.714,2.092,2.092,0,0,0-.656-.495,1.95,1.95,0,0,0-.864-.189,2.252,2.252,0,0,0-.9.173,2.053,2.053,0,0,0-.692.479,2.323,2.323,0,0,0-.46.715,2.422,2.422,0,0,0-.189.888Zm-1.415-7.043h2.221l-2.337,2.353h-1.363Z" transform="translate(-495.525 -184.924)" fill="#fff"/>
            <path id="Trazado_1322" data-name="Trazado 1322" d="M748.529,254.4h-1.778v-1.15h-.033a2.231,2.231,0,0,1-1.1,1.06,3.753,3.753,0,0,1-1.53.322,4.087,4.087,0,0,1-1.752-.355,3.5,3.5,0,0,1-1.244-.964,4.092,4.092,0,0,1-.74-1.438,6.3,6.3,0,0,1-.247-1.786,5.654,5.654,0,0,1,.314-1.991,3.966,3.966,0,0,1,.83-1.381,3.23,3.23,0,0,1,1.184-.8,3.8,3.8,0,0,1,1.358-.255,4.645,4.645,0,0,1,.807.073,3.665,3.665,0,0,1,.79.24,3.113,3.113,0,0,1,.7.42,2.345,2.345,0,0,1,.536.6h.031v-4.344h1.876Zm-6.55-4.162a4.087,4.087,0,0,0,.142,1.07,2.912,2.912,0,0,0,.427.938,2.169,2.169,0,0,0,.733.657,2.142,2.142,0,0,0,1.053.247,2.106,2.106,0,0,0,1.079-.263,2.18,2.18,0,0,0,.736-.69,3,3,0,0,0,.43-.962,4.3,4.3,0,0,0,.139-1.094,3.436,3.436,0,0,0-.633-2.206,2.089,2.089,0,0,0-1.72-.79,2.136,2.136,0,0,0-1.112.272,2.262,2.262,0,0,0-.738.708,2.89,2.89,0,0,0-.411.986,5.109,5.109,0,0,0-.126,1.128" transform="translate(-501.07 -185.103)" fill="#fff"/>
            <path id="Trazado_1323" data-name="Trazado 1323" d="M756.992,242.657h1.876v1.778h-1.876Zm0,3.242h1.876V254.4h-1.876Z" transform="translate(-507.443 -185.103)" fill="#fff"/>
            <path id="Trazado_1324" data-name="Trazado 1324" d="M768.775,250.571a1.764,1.764,0,0,0-.634-1.193,2.06,2.06,0,0,0-1.308-.4,2.687,2.687,0,0,0-.772.123,1.839,1.839,0,0,0-.76.462,2.6,2.6,0,0,0-.575.938,4.434,4.434,0,0,0-.232,1.57,4.736,4.736,0,0,0,.123,1.055,2.986,2.986,0,0,0,.4.936,2.135,2.135,0,0,0,.7.666,1.99,1.99,0,0,0,1.037.255,1.886,1.886,0,0,0,1.357-.509,2.364,2.364,0,0,0,.667-1.432h1.874a4.11,4.11,0,0,1-1.258,2.542,3.835,3.835,0,0,1-2.64.882,4.352,4.352,0,0,1-1.769-.338,3.73,3.73,0,0,1-1.292-.921,3.917,3.917,0,0,1-.8-1.39,5.459,5.459,0,0,1-.273-1.745,5.987,5.987,0,0,1,.265-1.792,4.136,4.136,0,0,1,.789-1.458,3.737,3.737,0,0,1,1.309-.969,4.405,4.405,0,0,1,1.833-.354,5.072,5.072,0,0,1,1.406.19,3.724,3.724,0,0,1,1.188.568,3,3,0,0,1,.846.954,3.248,3.248,0,0,1,.394,1.365Z" transform="translate(-509.567 -186.929)" fill="#fff"/>
            <path id="Trazado_1325" data-name="Trazado 1325" d="M781.634,256.462a4.633,4.633,0,0,1-1.817-.338,3.891,3.891,0,0,1-1.351-.93,3.974,3.974,0,0,1-.837-1.416,5.393,5.393,0,0,1-.29-1.809,5.327,5.327,0,0,1,.29-1.794,3.817,3.817,0,0,1,2.188-2.346,5.073,5.073,0,0,1,3.635,0,3.906,3.906,0,0,1,1.35.93,4.015,4.015,0,0,1,.839,1.416,5.439,5.439,0,0,1,.288,1.794,5.506,5.506,0,0,1-.288,1.809,4.032,4.032,0,0,1-.839,1.416,3.871,3.871,0,0,1-1.35.93,4.644,4.644,0,0,1-1.818.338m0-1.483a2.139,2.139,0,0,0,1.085-.263,2.316,2.316,0,0,0,.76-.69,3.125,3.125,0,0,0,.435-.962,4.376,4.376,0,0,0,0-2.181,3.02,3.02,0,0,0-.435-.962,2.378,2.378,0,0,0-.76-.683,2.367,2.367,0,0,0-2.17,0,2.3,2.3,0,0,0-.757.683,2.911,2.911,0,0,0-.439.962,4.353,4.353,0,0,0,0,2.181,3.008,3.008,0,0,0,.439.962,2.24,2.24,0,0,0,.757.69,2.141,2.141,0,0,0,1.085.263" transform="translate(-515.122 -186.929)" fill="#fff"/>
            <path id="Trazado_1326" data-name="Trazado 1326" d="M794.781,253.5a1.414,1.414,0,0,0,.625,1.152,2.459,2.459,0,0,0,1.3.329,5.089,5.089,0,0,0,.6-.04,2.541,2.541,0,0,0,.631-.156,1.194,1.194,0,0,0,.487-.338.8.8,0,0,0,.173-.583.828.828,0,0,0-.264-.593,1.844,1.844,0,0,0-.635-.37,5.8,5.8,0,0,0-.879-.239c-.326-.065-.662-.138-1-.214a9.458,9.458,0,0,1-1.01-.28,3.228,3.228,0,0,1-.87-.444,2.037,2.037,0,0,1-.62-.715,2.294,2.294,0,0,1-.23-1.078,1.952,1.952,0,0,1,.337-1.161,2.612,2.612,0,0,1,.855-.756,3.83,3.83,0,0,1,1.152-.4,6.953,6.953,0,0,1,1.209-.115,5.537,5.537,0,0,1,1.26.141,3.47,3.47,0,0,1,1.086.45,2.7,2.7,0,0,1,.806.816,2.776,2.776,0,0,1,.4,1.209h-1.955a1.174,1.174,0,0,0-.618-.9,2.553,2.553,0,0,0-1.111-.231,4.021,4.021,0,0,0-.469.033,2.218,2.218,0,0,0-.509.123,1.058,1.058,0,0,0-.4.264.624.624,0,0,0-.166.452.725.725,0,0,0,.238.561,1.913,1.913,0,0,0,.628.352,6.233,6.233,0,0,0,.883.239q.494.1,1.026.215a10.3,10.3,0,0,1,1,.278,3.343,3.343,0,0,1,.884.443,2.215,2.215,0,0,1,.627.709,2.154,2.154,0,0,1,.238,1.053,2.278,2.278,0,0,1-.347,1.283,2.732,2.732,0,0,1-.9.856,4.116,4.116,0,0,1-1.23.476,6.133,6.133,0,0,1-1.335.151,5.8,5.8,0,0,1-1.493-.183,3.441,3.441,0,0,1-1.187-.551,2.63,2.63,0,0,1-.79-.921,2.927,2.927,0,0,1-.306-1.308Z" transform="translate(-520.997 -186.929)" fill="#fff"/>
            <path id="Trazado_1327" data-name="Trazado 1327" d="M440.609,178.546H422.875V160.815a10.6,10.6,0,1,0-21.2,0v14.642l7.334-15.724a3.63,3.63,0,0,1,6.9,1.58L415.9,200.65l6.043-12.939a3.64,3.64,0,0,1,3.342-2.188h14.821a3.624,3.624,0,0,1,0,7.248H427.57l-3.251,6.975h16.289a10.6,10.6,0,0,0,0-21.2" transform="translate(-373.344 -150.215)" fill="#fff"/>
            <path id="Trazado_1328" data-name="Trazado 1328" d="M395.107,237.223a3.624,3.624,0,0,1-3.625-3.623l0-39.354L385.437,207.2a3.649,3.649,0,0,1-3.345,2.188h-14.82a3.625,3.625,0,0,1,0-7.25h12.536l3.252-6.976H366.769a10.6,10.6,0,0,0,0,21.2H384.5V234.1a10.6,10.6,0,1,0,21.2,0V219.453l-7.337,15.727a3.617,3.617,0,0,1-3.257,2.043" transform="translate(-356.169 -166.833)" fill="#fff"/>
          </g>
        </g>
      </g>
    </g>
  </g>
</svg>
